<svg width="21" height="21" viewBox="0 0 21 21" fill="none" xmlns="http://www.w3.org/2000/svg">
<path d="M1.02077 1.02077C1.37887 0.662778 1.86449 0.46167 2.37084 0.46167C2.8772 0.46167 3.36282 0.662778 3.72092 1.02077L10.4732 7.77305L17.2255 1.02077C17.5856 0.672924 18.068 0.480449 18.5687 0.484799C19.0694 0.48915 19.5483 0.689979 19.9024 1.04403C20.2564 1.39808 20.4572 1.87703 20.4616 2.37772C20.4659 2.8784 20.2735 3.36077 19.9256 3.72092L13.1733 10.4732L19.9256 17.2255C20.2735 17.5856 20.4659 18.068 20.4616 18.5687C20.4572 19.0694 20.2564 19.5483 19.9024 19.9024C19.5483 20.2564 19.0694 20.4572 18.5687 20.4616C18.068 20.4659 17.5856 20.2735 17.2255 19.9256L10.4732 13.1733L3.72092 19.9256C3.36077 20.2735 2.8784 20.4659 2.37772 20.4616C1.87703 20.4572 1.39808 20.2564 1.04403 19.9024C0.689979 19.5483 0.48915 19.0694 0.484799 18.5687C0.480449 18.068 0.672924 17.5856 1.02077 17.2255L7.77305 10.4732L1.02077 3.72092C0.662778 3.36282 0.46167 2.8772 0.46167 2.37084C0.46167 1.86449 0.662778 1.37887 1.02077 1.02077V1.02077Z" fill="white"/>
</svg>
